<mxfile host="app.diagrams.net" modified="2023-05-04T20:35:31.497Z" agent="Mozilla/5.0 (X11; Linux x86_64; rv:109.0) Gecko/20100101 Firefox/112.0" etag="Z3UnTKHoN4vu8-Ngjj2r" version="21.2.1" type="device">
  <diagram id="C5RBs43oDa-KdzZeNtuy" name="Page-1">
    <mxGraphModel dx="1120" dy="488" grid="1" gridSize="10" guides="1" tooltips="1" connect="1" arrows="1" fold="1" page="1" pageScale="1" pageWidth="827" pageHeight="1169" math="0" shadow="0">
      <root>
        <mxCell id="WIyWlLk6GJQsqaUBKTNV-0" />
        <mxCell id="WIyWlLk6GJQsqaUBKTNV-1" parent="WIyWlLk6GJQsqaUBKTNV-0" />
        <mxCell id="mgmrJAIhjQYuaZr03HoU-44" style="edgeStyle=orthogonalEdgeStyle;rounded=0;orthogonalLoop=1;jettySize=auto;html=1;exitX=0.5;exitY=1;exitDx=0;exitDy=0;entryX=0;entryY=0.5;entryDx=0;entryDy=0;" edge="1" parent="WIyWlLk6GJQsqaUBKTNV-1" source="zkfFHV4jXpPFQw0GAbJ--0" target="mgmrJAIhjQYuaZr03HoU-35">
          <mxGeometry relative="1" as="geometry" />
        </mxCell>
        <mxCell id="zkfFHV4jXpPFQw0GAbJ--0" value="Announce" style="swimlane;fontStyle=2;align=center;verticalAlign=top;childLayout=stackLayout;horizontal=1;startSize=26;horizontalStack=0;resizeParent=1;resizeLast=0;collapsible=1;marginBottom=0;rounded=0;shadow=0;strokeWidth=1;" parent="WIyWlLk6GJQsqaUBKTNV-1" vertex="1">
          <mxGeometry x="40" y="120" width="400" height="640" as="geometry">
            <mxRectangle x="230" y="140" width="160" height="26" as="alternateBounds" />
          </mxGeometry>
        </mxCell>
        <mxCell id="zkfFHV4jXpPFQw0GAbJ--1" value="db: Medoo" style="text;align=left;verticalAlign=top;spacingLeft=4;spacingRight=4;overflow=hidden;rotatable=0;points=[[0,0.5],[1,0.5]];portConstraint=eastwest;" parent="zkfFHV4jXpPFQw0GAbJ--0" vertex="1">
          <mxGeometry y="26" width="400" height="26" as="geometry" />
        </mxCell>
        <mxCell id="zkfFHV4jXpPFQw0GAbJ--4" value="" style="line;html=1;strokeWidth=1;align=left;verticalAlign=middle;spacingTop=-1;spacingLeft=3;spacingRight=3;rotatable=0;labelPosition=right;points=[];portConstraint=eastwest;" parent="zkfFHV4jXpPFQw0GAbJ--0" vertex="1">
          <mxGeometry y="52" width="400" height="8" as="geometry" />
        </mxCell>
        <mxCell id="zkfFHV4jXpPFQw0GAbJ--5" value="getClientID(): string | null" style="text;align=left;verticalAlign=top;spacingLeft=4;spacingRight=4;overflow=hidden;rotatable=0;points=[[0,0.5],[1,0.5]];portConstraint=eastwest;" parent="zkfFHV4jXpPFQw0GAbJ--0" vertex="1">
          <mxGeometry y="60" width="400" height="30" as="geometry" />
        </mxCell>
        <mxCell id="mgmrJAIhjQYuaZr03HoU-45" value="getClientPID(): string | null" style="text;align=left;verticalAlign=top;spacingLeft=4;spacingRight=4;overflow=hidden;rotatable=0;points=[[0,0.5],[1,0.5]];portConstraint=eastwest;" vertex="1" parent="zkfFHV4jXpPFQw0GAbJ--0">
          <mxGeometry y="90" width="400" height="26" as="geometry" />
        </mxCell>
        <mxCell id="mgmrJAIhjQYuaZr03HoU-46" value="getClientInfoHash(): string" style="text;align=left;verticalAlign=top;spacingLeft=4;spacingRight=4;overflow=hidden;rotatable=0;points=[[0,0.5],[1,0.5]];portConstraint=eastwest;" vertex="1" parent="zkfFHV4jXpPFQw0GAbJ--0">
          <mxGeometry y="116" width="400" height="24" as="geometry" />
        </mxCell>
        <mxCell id="mgmrJAIhjQYuaZr03HoU-48" value="getClientPort(): int" style="text;align=left;verticalAlign=top;spacingLeft=4;spacingRight=4;overflow=hidden;rotatable=0;points=[[0,0.5],[1,0.5]];portConstraint=eastwest;" vertex="1" parent="zkfFHV4jXpPFQw0GAbJ--0">
          <mxGeometry y="140" width="400" height="26" as="geometry" />
        </mxCell>
        <mxCell id="mgmrJAIhjQYuaZr03HoU-49" value="getClientUploaded(): int" style="text;align=left;verticalAlign=top;spacingLeft=4;spacingRight=4;overflow=hidden;rotatable=0;points=[[0,0.5],[1,0.5]];portConstraint=eastwest;" vertex="1" parent="zkfFHV4jXpPFQw0GAbJ--0">
          <mxGeometry y="166" width="400" height="24" as="geometry" />
        </mxCell>
        <mxCell id="mgmrJAIhjQYuaZr03HoU-50" value="getClientDownloaded(): int" style="text;align=left;verticalAlign=top;spacingLeft=4;spacingRight=4;overflow=hidden;rotatable=0;points=[[0,0.5],[1,0.5]];portConstraint=eastwest;" vertex="1" parent="zkfFHV4jXpPFQw0GAbJ--0">
          <mxGeometry y="190" width="400" height="30" as="geometry" />
        </mxCell>
        <mxCell id="mgmrJAIhjQYuaZr03HoU-63" value="getClientRemaining(): int" style="text;align=left;verticalAlign=top;spacingLeft=4;spacingRight=4;overflow=hidden;rotatable=0;points=[[0,0.5],[1,0.5]];portConstraint=eastwest;" vertex="1" parent="zkfFHV4jXpPFQw0GAbJ--0">
          <mxGeometry y="220" width="400" height="30" as="geometry" />
        </mxCell>
        <mxCell id="mgmrJAIhjQYuaZr03HoU-64" value="getClientCorrupt(): int" style="text;align=left;verticalAlign=top;spacingLeft=4;spacingRight=4;overflow=hidden;rotatable=0;points=[[0,0.5],[1,0.5]];portConstraint=eastwest;" vertex="1" parent="zkfFHV4jXpPFQw0GAbJ--0">
          <mxGeometry y="250" width="400" height="30" as="geometry" />
        </mxCell>
        <mxCell id="mgmrJAIhjQYuaZr03HoU-65" value="getClientKey(): string" style="text;align=left;verticalAlign=top;spacingLeft=4;spacingRight=4;overflow=hidden;rotatable=0;points=[[0,0.5],[1,0.5]];portConstraint=eastwest;" vertex="1" parent="zkfFHV4jXpPFQw0GAbJ--0">
          <mxGeometry y="280" width="400" height="30" as="geometry" />
        </mxCell>
        <mxCell id="mgmrJAIhjQYuaZr03HoU-66" value="getClientEvent(): string" style="text;align=left;verticalAlign=top;spacingLeft=4;spacingRight=4;overflow=hidden;rotatable=0;points=[[0,0.5],[1,0.5]];portConstraint=eastwest;" vertex="1" parent="zkfFHV4jXpPFQw0GAbJ--0">
          <mxGeometry y="310" width="400" height="30" as="geometry" />
        </mxCell>
        <mxCell id="mgmrJAIhjQYuaZr03HoU-67" value="isClientSeeding(): int" style="text;align=left;verticalAlign=top;spacingLeft=4;spacingRight=4;overflow=hidden;rotatable=0;points=[[0,0.5],[1,0.5]];portConstraint=eastwest;" vertex="1" parent="zkfFHV4jXpPFQw0GAbJ--0">
          <mxGeometry y="340" width="400" height="30" as="geometry" />
        </mxCell>
        <mxCell id="mgmrJAIhjQYuaZr03HoU-68" value="isClientLeeching(): int" style="text;align=left;verticalAlign=top;spacingLeft=4;spacingRight=4;overflow=hidden;rotatable=0;points=[[0,0.5],[1,0.5]];portConstraint=eastwest;" vertex="1" parent="zkfFHV4jXpPFQw0GAbJ--0">
          <mxGeometry y="370" width="400" height="30" as="geometry" />
        </mxCell>
        <mxCell id="mgmrJAIhjQYuaZr03HoU-69" value="isClientSupportCrypto(): bool" style="text;align=left;verticalAlign=top;spacingLeft=4;spacingRight=4;overflow=hidden;rotatable=0;points=[[0,0.5],[1,0.5]];portConstraint=eastwest;" vertex="1" parent="zkfFHV4jXpPFQw0GAbJ--0">
          <mxGeometry y="400" width="400" height="30" as="geometry" />
        </mxCell>
        <mxCell id="mgmrJAIhjQYuaZr03HoU-70" value="isClientSupportCompact(): bool" style="text;align=left;verticalAlign=top;spacingLeft=4;spacingRight=4;overflow=hidden;rotatable=0;points=[[0,0.5],[1,0.5]];portConstraint=eastwest;" vertex="1" parent="zkfFHV4jXpPFQw0GAbJ--0">
          <mxGeometry y="430" width="400" height="30" as="geometry" />
        </mxCell>
        <mxCell id="mgmrJAIhjQYuaZr03HoU-71" value="isClientRequirePeerID(): bool" style="text;align=left;verticalAlign=top;spacingLeft=4;spacingRight=4;overflow=hidden;rotatable=0;points=[[0,0.5],[1,0.5]];portConstraint=eastwest;" vertex="1" parent="zkfFHV4jXpPFQw0GAbJ--0">
          <mxGeometry y="460" width="400" height="30" as="geometry" />
        </mxCell>
        <mxCell id="mgmrJAIhjQYuaZr03HoU-72" value="getPeerInfo(&amp;account: Account, torrentId: int): array" style="text;align=left;verticalAlign=top;spacingLeft=4;spacingRight=4;overflow=hidden;rotatable=0;points=[[0,0.5],[1,0.5]];portConstraint=eastwest;" vertex="1" parent="zkfFHV4jXpPFQw0GAbJ--0">
          <mxGeometry y="490" width="400" height="30" as="geometry" />
        </mxCell>
        <mxCell id="mgmrJAIhjQYuaZr03HoU-73" value="unregisterPeer(&amp;account: Account, torrentId: int): void" style="text;align=left;verticalAlign=top;spacingLeft=4;spacingRight=4;overflow=hidden;rotatable=0;points=[[0,0.5],[1,0.5]];portConstraint=eastwest;" vertex="1" parent="zkfFHV4jXpPFQw0GAbJ--0">
          <mxGeometry y="520" width="400" height="30" as="geometry" />
        </mxCell>
        <mxCell id="mgmrJAIhjQYuaZr03HoU-74" value="updatePeer(&amp;account: Account, torrentId: int): void" style="text;align=left;verticalAlign=top;spacingLeft=4;spacingRight=4;overflow=hidden;rotatable=0;points=[[0,0.5],[1,0.5]];portConstraint=eastwest;" vertex="1" parent="zkfFHV4jXpPFQw0GAbJ--0">
          <mxGeometry y="550" width="400" height="30" as="geometry" />
        </mxCell>
        <mxCell id="mgmrJAIhjQYuaZr03HoU-75" value="registerPeer(&amp;account: Account, torrentId: int, update: bool): array" style="text;align=left;verticalAlign=top;spacingLeft=4;spacingRight=4;overflow=hidden;rotatable=0;points=[[0,0.5],[1,0.5]];portConstraint=eastwest;" vertex="1" parent="zkfFHV4jXpPFQw0GAbJ--0">
          <mxGeometry y="580" width="400" height="30" as="geometry" />
        </mxCell>
        <mxCell id="mgmrJAIhjQYuaZr03HoU-76" value="getPeers(torrentId: int, extraInfo: bool): array" style="text;align=left;verticalAlign=top;spacingLeft=4;spacingRight=4;overflow=hidden;rotatable=0;points=[[0,0.5],[1,0.5]];portConstraint=eastwest;" vertex="1" parent="zkfFHV4jXpPFQw0GAbJ--0">
          <mxGeometry y="610" width="400" height="30" as="geometry" />
        </mxCell>
        <mxCell id="mgmrJAIhjQYuaZr03HoU-18" value="Config" style="swimlane;fontStyle=2;align=center;verticalAlign=top;childLayout=stackLayout;horizontal=1;startSize=26;horizontalStack=0;resizeParent=1;resizeLast=0;collapsible=1;marginBottom=0;rounded=0;shadow=0;strokeWidth=1;" vertex="1" parent="WIyWlLk6GJQsqaUBKTNV-1">
          <mxGeometry x="470" y="120" width="400" height="630" as="geometry">
            <mxRectangle x="230" y="140" width="160" height="26" as="alternateBounds" />
          </mxGeometry>
        </mxCell>
        <mxCell id="mgmrJAIhjQYuaZr03HoU-19" value="db: Medoo" style="text;align=left;verticalAlign=top;spacingLeft=4;spacingRight=4;overflow=hidden;rotatable=0;points=[[0,0.5],[1,0.5]];portConstraint=eastwest;" vertex="1" parent="mgmrJAIhjQYuaZr03HoU-18">
          <mxGeometry y="26" width="400" height="26" as="geometry" />
        </mxCell>
        <mxCell id="mgmrJAIhjQYuaZr03HoU-20" value="" style="line;html=1;strokeWidth=1;align=left;verticalAlign=middle;spacingTop=-1;spacingLeft=3;spacingRight=3;rotatable=0;labelPosition=right;points=[];portConstraint=eastwest;" vertex="1" parent="mgmrJAIhjQYuaZr03HoU-18">
          <mxGeometry y="52" width="400" height="8" as="geometry" />
        </mxCell>
        <mxCell id="mgmrJAIhjQYuaZr03HoU-21" value="getConfig(): array" style="text;align=left;verticalAlign=top;spacingLeft=4;spacingRight=4;overflow=hidden;rotatable=0;points=[[0,0.5],[1,0.5]];portConstraint=eastwest;" vertex="1" parent="mgmrJAIhjQYuaZr03HoU-18">
          <mxGeometry y="60" width="400" height="26" as="geometry" />
        </mxCell>
        <mxCell id="mgmrJAIhjQYuaZr03HoU-22" value="getConfigVal(parameter: string): mixed" style="text;align=left;verticalAlign=top;spacingLeft=4;spacingRight=4;overflow=hidden;rotatable=0;points=[[0,0.5],[1,0.5]];portConstraint=eastwest;" vertex="1" parent="mgmrJAIhjQYuaZr03HoU-18">
          <mxGeometry y="86" width="400" height="26" as="geometry" />
        </mxCell>
        <mxCell id="mgmrJAIhjQYuaZr03HoU-23" value="getAnnouncementUrl(peerId: string): string" style="text;align=left;verticalAlign=top;spacingLeft=4;spacingRight=4;overflow=hidden;rotatable=0;points=[[0,0.5],[1,0.5]];portConstraint=eastwest;" vertex="1" parent="mgmrJAIhjQYuaZr03HoU-18">
          <mxGeometry y="112" width="400" height="26" as="geometry" />
        </mxCell>
        <mxCell id="mgmrJAIhjQYuaZr03HoU-24" value="getBackupAnnouncementUrl(peerId: string): array" style="text;align=left;verticalAlign=top;spacingLeft=4;spacingRight=4;overflow=hidden;rotatable=0;points=[[0,0.5],[1,0.5]];portConstraint=eastwest;" vertex="1" parent="mgmrJAIhjQYuaZr03HoU-18">
          <mxGeometry y="138" width="400" height="26" as="geometry" />
        </mxCell>
        <mxCell id="mgmrJAIhjQYuaZr03HoU-25" value="updateConfigVal(parameter: string, value: string)" style="text;align=left;verticalAlign=top;spacingLeft=4;spacingRight=4;overflow=hidden;rotatable=0;points=[[0,0.5],[1,0.5]];portConstraint=eastwest;" vertex="1" parent="mgmrJAIhjQYuaZr03HoU-18">
          <mxGeometry y="164" width="400" height="26" as="geometry" />
        </mxCell>
        <mxCell id="mgmrJAIhjQYuaZr03HoU-26" value="getDatabaseVersion(): string" style="text;align=left;verticalAlign=top;spacingLeft=4;spacingRight=4;overflow=hidden;rotatable=0;points=[[0,0.5],[1,0.5]];portConstraint=eastwest;" vertex="1" parent="mgmrJAIhjQYuaZr03HoU-18">
          <mxGeometry y="190" width="400" height="26" as="geometry" />
        </mxCell>
        <mxCell id="mgmrJAIhjQYuaZr03HoU-27" value="getUserGroups(): array" style="text;align=left;verticalAlign=top;spacingLeft=4;spacingRight=4;overflow=hidden;rotatable=0;points=[[0,0.5],[1,0.5]];portConstraint=eastwest;" vertex="1" parent="mgmrJAIhjQYuaZr03HoU-18">
          <mxGeometry y="216" width="400" height="26" as="geometry" />
        </mxCell>
        <mxCell id="mgmrJAIhjQYuaZr03HoU-28" value="addUserGroup(groupName: string): bool" style="text;align=left;verticalAlign=top;spacingLeft=4;spacingRight=4;overflow=hidden;rotatable=0;points=[[0,0.5],[1,0.5]];portConstraint=eastwest;" vertex="1" parent="mgmrJAIhjQYuaZr03HoU-18">
          <mxGeometry y="242" width="400" height="26" as="geometry" />
        </mxCell>
        <mxCell id="mgmrJAIhjQYuaZr03HoU-29" value="deleteUserGroup(groupID: int): bool" style="text;align=left;verticalAlign=top;spacingLeft=4;spacingRight=4;overflow=hidden;rotatable=0;points=[[0,0.5],[1,0.5]];portConstraint=eastwest;" vertex="1" parent="mgmrJAIhjQYuaZr03HoU-18">
          <mxGeometry y="268" width="400" height="26" as="geometry" />
        </mxCell>
        <mxCell id="mgmrJAIhjQYuaZr03HoU-30" value="updateUserGroup(groupID: int, newParameters: array): bool" style="text;align=left;verticalAlign=top;spacingLeft=4;spacingRight=4;overflow=hidden;rotatable=0;points=[[0,0.5],[1,0.5]];portConstraint=eastwest;" vertex="1" parent="mgmrJAIhjQYuaZr03HoU-18">
          <mxGeometry y="294" width="400" height="26" as="geometry" />
        </mxCell>
        <mxCell id="mgmrJAIhjQYuaZr03HoU-31" value="doesUserGroupExist(groupID: int): bool" style="text;align=left;verticalAlign=top;spacingLeft=4;spacingRight=4;overflow=hidden;rotatable=0;points=[[0,0.5],[1,0.5]];portConstraint=eastwest;" vertex="1" parent="mgmrJAIhjQYuaZr03HoU-18">
          <mxGeometry y="320" width="400" height="26" as="geometry" />
        </mxCell>
        <mxCell id="mgmrJAIhjQYuaZr03HoU-32" value="clearUserGroupCache(): bool" style="text;align=left;verticalAlign=top;spacingLeft=4;spacingRight=4;overflow=hidden;rotatable=0;points=[[0,0.5],[1,0.5]];portConstraint=eastwest;" vertex="1" parent="mgmrJAIhjQYuaZr03HoU-18">
          <mxGeometry y="346" width="400" height="26" as="geometry" />
        </mxCell>
        <mxCell id="mgmrJAIhjQYuaZr03HoU-35" value="getTorrentCategories(): array" style="text;align=left;verticalAlign=top;spacingLeft=4;spacingRight=4;overflow=hidden;rotatable=0;points=[[0,0.5],[1,0.5]];portConstraint=eastwest;" vertex="1" parent="mgmrJAIhjQYuaZr03HoU-18">
          <mxGeometry y="372" width="400" height="26" as="geometry" />
        </mxCell>
        <mxCell id="mgmrJAIhjQYuaZr03HoU-34" value="addTorrentCategory(categoryName: string): bool" style="text;align=left;verticalAlign=top;spacingLeft=4;spacingRight=4;overflow=hidden;rotatable=0;points=[[0,0.5],[1,0.5]];portConstraint=eastwest;" vertex="1" parent="mgmrJAIhjQYuaZr03HoU-18">
          <mxGeometry y="398" width="400" height="26" as="geometry" />
        </mxCell>
        <mxCell id="mgmrJAIhjQYuaZr03HoU-37" value="updateTorrentCategory(categoryIndex: int, categoryName: string,&#xa;                                      isParent: bool, childOf: int): bool&#xa;" style="text;align=left;verticalAlign=top;spacingLeft=4;spacingRight=4;overflow=hidden;rotatable=0;points=[[0,0.5],[1,0.5]];portConstraint=eastwest;" vertex="1" parent="mgmrJAIhjQYuaZr03HoU-18">
          <mxGeometry y="424" width="400" height="46" as="geometry" />
        </mxCell>
        <mxCell id="mgmrJAIhjQYuaZr03HoU-38" value="deleteTorrentCategory(categoryIndex: int): bool" style="text;align=left;verticalAlign=top;spacingLeft=4;spacingRight=4;overflow=hidden;rotatable=0;points=[[0,0.5],[1,0.5]];portConstraint=eastwest;" vertex="1" parent="mgmrJAIhjQYuaZr03HoU-18">
          <mxGeometry y="470" width="400" height="30" as="geometry" />
        </mxCell>
        <mxCell id="mgmrJAIhjQYuaZr03HoU-39" value="isTorrentCategoryParent(categoryIndex: int): bool" style="text;align=left;verticalAlign=top;spacingLeft=4;spacingRight=4;overflow=hidden;rotatable=0;points=[[0,0.5],[1,0.5]];portConstraint=eastwest;" vertex="1" parent="mgmrJAIhjQYuaZr03HoU-18">
          <mxGeometry y="500" width="400" height="30" as="geometry" />
        </mxCell>
        <mxCell id="mgmrJAIhjQYuaZr03HoU-40" value="doesTorrentCategoryExist(categoryIndex: int): bool" style="text;align=left;verticalAlign=top;spacingLeft=4;spacingRight=4;overflow=hidden;rotatable=0;points=[[0,0.5],[1,0.5]];portConstraint=eastwest;" vertex="1" parent="mgmrJAIhjQYuaZr03HoU-18">
          <mxGeometry y="530" width="400" height="30" as="geometry" />
        </mxCell>
        <mxCell id="mgmrJAIhjQYuaZr03HoU-41" value="clearTorrentCategoryCache(): bool" style="text;align=left;verticalAlign=top;spacingLeft=4;spacingRight=4;overflow=hidden;rotatable=0;points=[[0,0.5],[1,0.5]];portConstraint=eastwest;" vertex="1" parent="mgmrJAIhjQYuaZr03HoU-18">
          <mxGeometry y="560" width="400" height="30" as="geometry" />
        </mxCell>
        <mxCell id="mgmrJAIhjQYuaZr03HoU-42" value="getLanguages(): array" style="text;align=left;verticalAlign=top;spacingLeft=4;spacingRight=4;overflow=hidden;rotatable=0;points=[[0,0.5],[1,0.5]];portConstraint=eastwest;" vertex="1" parent="mgmrJAIhjQYuaZr03HoU-18">
          <mxGeometry y="590" width="400" height="30" as="geometry" />
        </mxCell>
      </root>
    </mxGraphModel>
  </diagram>
</mxfile>
